/* XPM */
static char *ugene_32[] = {
"32 32 257 2 0 0",
"   c #000000",
"!  c #001926",
"#  c #001D2B",
"$  c #00202D",
"%  c #002230",
"&  c #082430",
"'  c #002532",
"(  c #002634",
")  c #0E2A35",
"*  c #002836",
"+  c #142C36",
",  c #002A38",
"-  c #172F39",
".  c #002D3A",
"/  c #002E3C",
"0  c #0A2F3C",
"1  c #1E333C",
"2  c #03303D",
"3  c #0D313D",
"4  c #16333D",
"5  c #20343E",
"6  c #053240",
"7  c #1B3640",
"8  c #0A3241",
"9  c #073441",
":  c #0A3442",
";  c #163642",
"<  c #1E3842",
"=  c #0A3544",
">  c #0E3644",
"?  c #0F3845",
"@  c #113846",
"A  c #1E3B46",
"B  c #113948",
"C  c #143B49",
"D  c #223E49",
"E  c #153C4A",
"F  c #1C3C4A",
"G  c #2F444B",
"H  c #163E4C",
"I  c #193E4C",
"J  c #35434C",
"K  c #25414D",
"L  c #29434D",
"M  c #1A404E",
"N  c #1D404E",
"O  c #29444E",
"P  c #1A4250",
"Q  c #1D4250",
"R  c #204250",
"S  c #2B4651",
"T  c #2D4651",
"U  c #2F4851",
"V  c #3D4B51",
"W  c #1E4452",
"X  c #204452",
"Y  c #1E4554",
"Z  c #214654",
"[  c #2D4954",
"\  c #244755",
"]  c #314A55",
"^  c #224856",
"_  c #254856",
"`  c #264958",
"a  c #234A58",
"b  c #284A58",
"c  c #304B58",
"d  c #344D58",
"e  c #334E59",
"f  c #264C5A",
"g  c #294C5A",
"h  c #51565A",
"i  c #35505B",
"j  c #53585B",
"k  c #54585B",
"l  c #274D5C",
"m  c #2A4E5C",
"n  c #2C4E5C",
"o  c #38525C",
"p  c #29505D",
"q  c #55595D",
"r  c #2D505E",
"s  c #3B545E",
"t  c #30515F",
"u  c #3E555F",
"v  c #585B5F",
"w  c #585C5F",
"x  c #2E5260",
"y  c #305260",
"z  c #3A5360",
"{  c #475960",
"|  c #595D60",
"}  c #2E5462",
"~  c #325462",
" ! c #345563",
"!! c #5C5F63",
"#! c #5D6063",
"$! c #315564",
"%! c #355665",
"&! c #355866",
"'! c #385866",
"(! c #3E5966",
")! c #5E6366",
"*! c #375A68",
"+! c #3E5A68",
",! c #395A69",
"-! c #4B5F69",
".! c #4D6069",
"/! c #3B5C6A",
"0! c #57656A",
"1! c #3C5C6B",
"2! c #59666B",
"3! c #3B5C6C",
"4! c #3D5E6C",
"5! c #58676C",
"6! c #405F6D",
"7! c #3E606D",
"8! c #616A6D",
"9! c #41606E",
":! c #5A686F",
";! c #426170",
"<! c #446371",
"=! c #456472",
">! c #4F6872",
"?! c #626D72",
"@! c #686F72",
"A! c #466674",
"B! c #486674",
"C! c #616E75",
"D! c #476876",
"E! c #486876",
"F! c #546D76",
"G! c #617076",
"H! c #667177",
"I! c #6B7377",
"J! c #486978",
"K! c #566F79",
"L! c #4B6C7A",
"M! c #59717A",
"N! c #6E767A",
"O! c #4E6E7C",
"P! c #6F787C",
"Q! c #5C737D",
"R! c #717A7D",
"S! c #50707E",
"T! c #5E757E",
"U! c #737D80",
"V! c #757D80",
"W! c #537381",
"X! c #627882",
"Y! c #7F8082",
"Z! c #577583",
"[! c #768183",
"\! c #657B85",
"]! c #677C85",
"^! c #788185",
"_! c #7D8285",
"`! c #5A7786",
"a! c #687E87",
"b! c #7D8487",
"c! c #5C7A88",
"d! c #6A7E88",
"e! c #858788",
"f! c #5E7C8A",
"g! c #6C808A",
"h! c #898C8C",
"i! c #607F8D",
"j! c #6F838D",
"k! c #858C8D",
"l! c #71858E",
"m! c #6F858F",
"n! c #929190",
"o! c #758992",
"p! c #888F92",
"q! c #788B94",
"r! c #8F9395",
"s! c #7A8C96",
"t! c #7C8E97",
"u! c #7C8E98",
"v! c #9CA0A0",
"w! c #A2A1A0",
"x! c #B0AFAE",
"y! c #B5B2AF",
"z! c #97A8B0",
"{! c #BAB5B1",
"|! c #BAB7B4",
"}! c #A5B0B6",
"~! c #B3B4B6",
" # c #BAB8B6",
"!# c #BFBAB6",
"## c #B8B8B8",
"$# c #C2BDB9",
"%# c #BFBBBA",
"&# c #C5BEBA",
"'# c #B7B9BC",
"(# c #C2BFBC",
")# c #B9BBBD",
"*# c #BDBEBD",
"+# c #C5C0BD",
",# c #C0C0BF",
"-# c #C2C2C1",
".# c #CCC6C1",
"/# c #C7C8C7",
"0# c #C9C9C7",
"1# c #D2CBC7",
"2# c #CACAC9",
"3# c #D5CEC9",
"4# c #D9D1CC",
"5# c #D0CFD1",
"6# c #D8D5D3",
"7# c #DCD7D3",
"8# c #DFD8D3",
"9# c #E1D9D3",
":# c #E0D9D4",
";# c #DAD8D5",
"<# c #DED9D5",
"=# c #DAD7D6",
"># c #E5DDD7",
"?# c #D8D8D9",
"@# c #D7D9D9",
"A# c #E2DCD9",
"B# c #E4DED9",
"C# c #E6E0DA",
"D# c #E8E0DB",
"E# c #D6D9DD",
"F# c #E1DEDD",
"G# c #E5E1DD",
"H# c #E8E2DD",
"I# c #D8DBDE",
"J# c #DADCDF",
"K# c #E3E1DF",
"L# c #EAE4DF",
"M# c #EDE5DF",
"N# c #D9DDE0",
"O# c #DDDFE0",
"P# c #E0DFE0",
"Q# c #EDE6E0",
"R# c #DEE0E2",
"S# c #EAE5E2",
"T# c #E0E1E3",
"U# c #E5E4E3",
"V# c #EFE8E3",
"W# c #E2E2E4",
"X# c #DFE2E6",
"Y# c #E4E5E6",
"Z# c #E2E4E8",
"[# c #E5E6E8",
"\# c #E6E8E8",
"]# c #E9E9E9",
"^# c #EDEDEA",
"_# c #EBECEB",
"`# c #E8E9EC",
"a# c #EDEDEC",
"b# c #F0EFEC",
"c# c #F1F1EE",
"d# c #FFFFFF",
"e# c None",
"}!u!t!u!u!u!u!u!u!u!u!u!u!u!u!u!u!u!u!u!u!u!u!u!u!u!u!u!s!z!e#e#",
"u!D!D!E!E!E!E!E!E!E!E!E!E!E!E!E!E!D!D!D!D!D!D!D!D!D!D!D!=!i!#!e#",
"t!D!B!B!B!B!B!B!B!B!B!B!B!A!A!A!A!A!A!A!=!=!=!=!=!=!=!<!9!f!!!e#",
"t!A!A!A!A!A!A!A!A!A!A!=!=!=!=!<!=!<!<!<!<!<!<!<!;!;!;!;!6!c!!!e#",
"s!;!;!<!;!<!;!3!3!3!/!7!;!;!;!;!;!9!;!3!,!,!,!/!9!6!6!6!1!`!!!e#",
"q!7!6!9!9!4!-!G!G!C!G!.!1!4!4!4!4!4!+!5!G!C!C!:!(!1!1!1!,!Z!!!e#",
"o!3!1!1!4!~ V!>#9#:#C#_!y /!/!/!/!*!z {!D#8#B#&#u *!,!,!&!W!| e#",
"o!,!,!,!,!r V!D#<#<#H#b!r ,!'!'!'!%!o  #G#7#B#+#s &!&!&! !S!| e#",
"l!&!'!'!'!m U!C#<#<#D#_!m %!%!%!%!} i |!C#7#A#+#o }  ! !y O!| e#",
"l!$! !%!%!g R!C#<#<#G#^!b ~ ~ ~ ~ x e ##G#7#A#+#i x y y r L!| e#",
"j!x y y y ` R!C#<#;#Y#^!\ y t t t m c '#W#;#B#+#d m r r g J!| e#",
"g!m r r r Z R!C#<#I#[#^!X r r n n f [ )#Z#?#B#+#] l m m b D!| e#",
"g!l m m n W P!D#I#N#]#^!N g g g g ` S *#\#E#F#+#[ a b b \ =!| e#",
"d!` b b b M N!G#I#O#^#^!I b b ` ` Z O *#]#I#P#+#T Z \ \ X ;!w e#",
"a!\ _ _ _ H N!K#N#R#b#^!C \ \ \ \ W K ,#_#N#O#(#L Y Z Y Q 7!v e#",
"]!W Z Z Z E I!K#N#R#b#[!@ X X X X M D ,#a#J#T#%#D P Q Q M /!q e#",
"\!P Q W W @ ?!F#N#R#c#^!> Q N N M H D -#a#J#T# #A H M M E *!q e#",
"X!M M M M > 0!A#N#O#c#k!8 I I I I B D 0#_#J#W#x!; E H E B &!q e#",
"X!E E H H : { <#N#N#b#v!0 E E E E = L 6#\#I#U#w!3 B B B > $!q e#",
"T!B B C C : U 3#P#I#Y#2#7 6 C B B ( 5!]#R#E#S#h!, > > > 8 } q e#",
"T!> > ? ? = 3 y!H#E#N#_#r!) ( * ' G /#Z#I#I#D#2!* : : : 6 r q e#",
"Q!: : : : = * N!Q#;#E#N#Y#~!U!H!p!5#[#E#?#H#.#< . 6 6 6 / p q e#",
"M!6 6 9 9 9 / 4 $#H#;#@#J#[#]#[#`#X#E#;#<#M#@!' 2 2 2 / . l q e#",
"M!/ 2 2 2 2 2 ( V 4#Q#<#=#?#?#?#?#=#;#B#V#n!& . / / / . , f k e#",
"M!. / / / / / / % V !#M#L#B#A#A#A#D#Q#9#Y!& ( . , , , , ( a k e#",
"K!, , . . , , , . $ + 8!w!$#1#3#.#y!e!J # ( , * * * * * ' ^ j e#",
"F!* * * * * * * * , ' # # ) 1 5 - % ! # ( ( ( ( ( ( ( ( % Z j e#",
"F!( ( ( ( ( ( ( ( ( ( ( ' ' % % % ' ' ' ' ' ' ' ' ' % % $ X j e#",
">!$ $ $ $ $ $ $ $ $ $ $ $ $ $ $ $ $ $ # # # # # # # # # ! I h e#",
"m!N R R R R R R R R R N N N N N N N N N N N N N N N N N F 7!)!e#",
"e#j h h h h h h h h h h h h h h h h h h h h h h h h h h h )!e#e#",
"e#e#e#e#e#e#e#e#e#e#e#e#e#e#e#e#e#e#e#e#e#e#e#e#e#e#e#e#e#e#e#e#"
};
